<svg width="269" height="83" viewBox="0 0 269 83" fill="none" xmlns="http://www.w3.org/2000/svg">
<path d="M56.0948 71.48C52.2868 71.48 49.0868 70.776 46.4948 69.368C43.9028 67.96 41.9508 65.96 40.6388 63.368C39.3268 60.776 38.6708 57.704 38.6708 54.152C38.6708 50.568 39.3748 47.48 40.7828 44.888C42.1908 42.264 44.2068 40.248 46.8308 38.84C49.4868 37.4 52.6708 36.68 56.3828 36.68C58.8468 36.68 61.0068 37.016 62.8628 37.688C64.7188 38.328 66.3508 39.272 67.7588 40.52L65.6948 45.32C64.6708 44.52 63.6948 43.88 62.7668 43.4C61.8388 42.92 60.8788 42.584 59.8868 42.392C58.8948 42.168 57.7428 42.056 56.4308 42.056C52.7188 42.056 49.9028 43.112 47.9828 45.224C46.0948 47.304 45.1508 50.296 45.1508 54.2C45.1508 58.104 46.0468 61.08 47.8388 63.128C49.6628 65.176 52.5108 66.2 56.3828 66.2C57.6948 66.2 59.0068 66.072 60.3188 65.816C61.6628 65.56 62.9748 65.192 64.2548 64.712L63.1028 67.304V57.176H55.1828V52.664H68.2388V68.936C66.6708 69.736 64.7988 70.36 62.6228 70.808C60.4468 71.256 58.2708 71.48 56.0948 71.48ZM85.962 71.48C83.466 71.48 81.306 70.968 79.482 69.944C77.658 68.92 76.234 67.464 75.21 65.576C74.218 63.688 73.722 61.448 73.722 58.856C73.722 56.264 74.218 54.04 75.21 52.184C76.234 50.296 77.658 48.84 79.482 47.816C81.306 46.792 83.466 46.28 85.962 46.28C88.458 46.28 90.618 46.792 92.442 47.816C94.298 48.84 95.722 50.296 96.714 52.184C97.738 54.04 98.25 56.264 98.25 58.856C98.25 61.448 97.738 63.688 96.714 65.576C95.722 67.464 94.298 68.92 92.442 69.944C90.618 70.968 88.458 71.48 85.962 71.48ZM85.962 66.872C87.85 66.872 89.354 66.216 90.474 64.904C91.594 63.56 92.154 61.544 92.154 58.856C92.154 56.168 91.594 54.168 90.474 52.856C89.354 51.544 87.85 50.888 85.962 50.888C84.074 50.888 82.57 51.544 81.45 52.856C80.33 54.168 79.77 56.168 79.77 58.856C79.77 61.544 80.33 63.56 81.45 64.904C82.57 66.216 84.074 66.872 85.962 66.872ZM103.616 71V35.672H109.616V71H103.616ZM125.732 71.48C123.62 71.48 121.748 70.984 120.116 69.992C118.516 68.968 117.268 67.512 116.372 65.624C115.476 63.736 115.028 61.48 115.028 58.856C115.028 56.232 115.476 53.992 116.372 52.136C117.268 50.248 118.516 48.808 120.116 47.816C121.748 46.792 123.62 46.28 125.732 46.28C127.748 46.28 129.524 46.776 131.06 47.768C132.628 48.728 133.668 50.04 134.18 51.704H133.556V35.672L139.556 35.672V71H133.652V65.864H134.228C133.716 67.592 132.676 68.968 131.108 69.992C129.572 70.984 127.78 71.48 125.732 71.48ZM127.412 66.872C129.3 66.872 130.82 66.216 131.972 64.904C133.124 63.56 133.7 61.544 133.7 58.856C133.7 56.168 133.124 54.168 131.972 52.856C130.82 51.544 129.3 50.888 127.412 50.888C125.524 50.888 123.988 51.544 122.804 52.856C121.652 54.168 121.076 56.168 121.076 58.856C121.076 61.544 121.652 63.56 122.804 64.904C123.988 66.216 125.524 66.872 127.412 66.872Z" fill="#ECCA1B"/>
<path d="M158.57 71.48C155.85 71.48 153.338 71.144 151.034 70.472C148.762 69.768 146.81 68.808 145.178 67.592L147.098 62.744C148.186 63.512 149.322 64.168 150.506 64.712C151.69 65.224 152.954 65.624 154.298 65.912C155.642 66.168 157.066 66.296 158.57 66.296C161.098 66.296 162.922 65.88 164.042 65.048C165.162 64.216 165.722 63.128 165.722 61.784C165.722 60.6 165.338 59.704 164.57 59.096C163.802 58.456 162.426 57.928 160.442 57.512L155.018 56.408C151.914 55.768 149.594 54.696 148.058 53.192C146.522 51.688 145.754 49.672 145.754 47.144C145.754 45.032 146.314 43.192 147.434 41.624C148.554 40.056 150.122 38.84 152.138 37.976C154.154 37.112 156.506 36.68 159.194 36.68C161.594 36.68 163.818 37.032 165.866 37.736C167.914 38.408 169.626 39.384 171.002 40.664L169.082 45.272C167.706 44.12 166.202 43.272 164.57 42.728C162.938 42.152 161.114 41.864 159.098 41.864C156.826 41.864 155.05 42.312 153.77 43.208C152.522 44.072 151.898 45.272 151.898 46.808C151.898 47.992 152.282 48.936 153.05 49.64C153.85 50.344 155.194 50.888 157.082 51.272L162.458 52.328C165.658 52.968 168.026 54.024 169.562 55.496C171.098 56.936 171.866 58.888 171.866 61.352C171.866 63.368 171.322 65.144 170.234 66.68C169.146 68.184 167.61 69.368 165.626 70.232C163.642 71.064 161.29 71.48 158.57 71.48ZM186.771 71.48C184.659 71.48 182.803 70.984 181.203 69.992C179.603 68.968 178.355 67.512 177.459 65.624C176.563 63.736 176.115 61.48 176.115 58.856C176.115 56.232 176.563 53.992 177.459 52.136C178.355 50.248 179.603 48.808 181.203 47.816C182.803 46.792 184.659 46.28 186.771 46.28C188.819 46.28 190.611 46.792 192.147 47.816C193.715 48.808 194.755 50.152 195.267 51.848H194.739L195.267 46.76H201.027C200.931 47.752 200.835 48.76 200.739 49.784C200.675 50.808 200.643 51.816 200.643 52.808V71H194.691L194.643 66.008H195.219C194.707 67.672 193.667 69 192.099 69.992C190.531 70.984 188.755 71.48 186.771 71.48ZM188.451 66.872C190.339 66.872 191.859 66.216 193.011 64.904C194.163 63.56 194.739 61.544 194.739 58.856C194.739 56.168 194.163 54.168 193.011 52.856C191.859 51.544 190.339 50.888 188.451 50.888C186.563 50.888 185.043 51.544 183.891 52.856C182.739 54.168 182.163 56.168 182.163 58.856C182.163 61.544 182.723 63.56 183.843 64.904C184.995 66.216 186.531 66.872 188.451 66.872ZM207.369 71V35.672H213.369V71H207.369ZM231.788 71.48C227.724 71.48 224.54 70.36 222.236 68.12C219.932 65.88 218.78 62.808 218.78 58.904C218.78 56.376 219.276 54.168 220.268 52.28C221.26 50.392 222.636 48.92 224.396 47.864C226.188 46.808 228.268 46.28 230.636 46.28C232.972 46.28 234.924 46.776 236.492 47.768C238.06 48.76 239.244 50.152 240.044 51.944C240.876 53.736 241.292 55.832 241.292 58.232V59.816H223.628V56.648H237.02L236.204 57.32C236.204 55.08 235.724 53.368 234.764 52.184C233.836 51 232.476 50.408 230.684 50.408C228.7 50.408 227.164 51.112 226.076 52.52C225.02 53.928 224.492 55.896 224.492 58.424V59.048C224.492 61.672 225.132 63.64 226.412 64.952C227.724 66.232 229.564 66.872 231.932 66.872C233.308 66.872 234.588 66.696 235.772 66.344C236.988 65.96 238.14 65.352 239.228 64.52L241.004 68.552C239.852 69.48 238.476 70.2 236.876 70.712C235.276 71.224 233.58 71.48 231.788 71.48ZM255.205 71.48C253.125 71.48 251.205 71.24 249.445 70.76C247.717 70.248 246.261 69.544 245.077 68.648L246.757 64.616C247.973 65.448 249.317 66.088 250.789 66.536C252.261 66.984 253.749 67.208 255.253 67.208C256.853 67.208 258.037 66.936 258.805 66.392C259.605 65.848 260.005 65.112 260.005 64.184C260.005 63.448 259.749 62.872 259.237 62.456C258.757 62.008 257.973 61.672 256.885 61.448L252.085 60.536C250.037 60.088 248.469 59.32 247.381 58.232C246.325 57.144 245.797 55.72 245.797 53.96C245.797 52.456 246.197 51.128 246.997 49.976C247.829 48.824 248.997 47.928 250.501 47.288C252.037 46.616 253.829 46.28 255.877 46.28C257.669 46.28 259.349 46.52 260.917 47C262.517 47.48 263.861 48.2 264.949 49.16L263.221 53.048C262.229 52.248 261.093 51.624 259.813 51.176C258.533 50.728 257.285 50.504 256.069 50.504C254.405 50.504 253.189 50.808 252.421 51.416C251.653 51.992 251.269 52.744 251.269 53.672C251.269 54.376 251.493 54.968 251.941 55.448C252.421 55.896 253.157 56.232 254.149 56.456L258.949 57.368C261.093 57.784 262.709 58.52 263.797 59.576C264.917 60.6 265.477 62.008 265.477 63.8C265.477 65.4 265.045 66.776 264.181 67.928C263.317 69.08 262.117 69.96 260.581 70.568C259.045 71.176 257.253 71.48 255.205 71.48Z" fill="#FAFAFA"/>
<path d="M34.9999 12C35.0029 12.3499 34.8788 12.6919 34.6448 12.9785C34.4108 13.2651 34.0785 13.4822 33.6941 13.5995L25.7467 16.0735L22.8613 22.8875C22.72 23.2141 22.4654 23.4957 22.132 23.6945C21.7985 23.8934 21.402 24 20.9958 24C20.5895 24 20.1931 23.8934 19.8596 23.6945C19.5261 23.4957 19.2716 23.2141 19.1302 22.8875L16.2448 16.0735L8.29747 13.5995C7.91664 13.4783 7.5882 13.2601 7.35626 12.9742C7.12432 12.6882 7 12.3483 7 12C7 11.6517 7.12432 11.3118 7.35626 11.0258C7.5882 10.7399 7.91664 10.5217 8.29747 10.4005L16.2448 7.9265L19.1302 1.11245C19.2716 0.78593 19.5261 0.50432 19.8596 0.305456C20.1931 0.106592 20.5895 0 20.9958 0C21.402 0 21.7985 0.106592 22.132 0.305456C22.4654 0.50432 22.72 0.78593 22.8613 1.11245L25.7467 7.9265L33.6941 10.4005C34.0785 10.5178 34.4108 10.7349 34.6448 11.0215C34.8788 11.3081 35.0029 11.6501 34.9999 12V12Z" fill="#ECCA1B"/>
<path d="M17 28.5C17.0018 28.7187 16.9264 28.9324 16.7843 29.1116C16.6422 29.2907 16.4405 29.4264 16.2071 29.4997L11.3819 31.0459L9.63009 35.3047C9.54427 35.5088 9.38974 35.6848 9.18726 35.8091C8.98478 35.9334 8.74406 36 8.49743 36C8.25079 36 8.01007 35.9334 7.80759 35.8091C7.60511 35.6848 7.45058 35.5088 7.36476 35.3047L5.6129 31.0459L0.787749 29.4997C0.556532 29.424 0.357119 29.2876 0.216299 29.1089C0.0754798 28.9301 0 28.7177 0 28.5C0 28.2823 0.0754798 28.0698 0.216299 27.8911C0.357119 27.7124 0.556532 27.576 0.787749 27.5003L5.6129 25.9541L7.36476 21.6953C7.45058 21.4912 7.60511 21.3152 7.80759 21.1909C8.01007 21.0666 8.25079 21 8.49743 21C8.74406 21 8.98478 21.0666 9.18726 21.1909C9.38974 21.3152 9.54427 21.4912 9.63009 21.6953L11.3819 25.9541L16.2071 27.5003C16.4405 27.5736 16.6422 27.7093 16.7843 27.8884C16.9264 28.0676 17.0018 28.2813 17 28.5V28.5Z" fill="#ECCA1B"/>
<path d="M36 32C36.0011 32.1458 35.9524 32.2883 35.8604 32.4077C35.7685 32.5271 35.638 32.6176 35.4869 32.6665L32.3648 33.6973L31.2312 36.5365C31.1757 36.6725 31.0757 36.7899 30.9447 36.8727C30.8137 36.9556 30.6579 37 30.4983 37C30.3387 37 30.183 36.9556 30.052 36.8727C29.921 36.7899 29.821 36.6725 29.7654 36.5365L28.6319 33.6973L25.5097 32.6665C25.3601 32.616 25.2311 32.525 25.14 32.4059C25.0488 32.2868 25 32.1451 25 32C25 31.8549 25.0488 31.7132 25.14 31.5941C25.2311 31.475 25.3601 31.384 25.5097 31.3335L28.6319 30.3027L29.7654 27.4635C29.821 27.3275 29.921 27.2101 30.052 27.1273C30.183 27.0444 30.3387 27 30.4983 27C30.6579 27 30.8137 27.0444 30.9447 27.1273C31.0757 27.2101 31.1757 27.3275 31.2312 27.4635L32.3648 30.3027L35.4869 31.3335C35.638 31.3824 35.7685 31.4729 35.8604 31.5923C35.9524 31.7117 36.0011 31.8542 36 32V32Z" fill="#ECCA1B"/>
</svg>
